<?xml version="1.0" standalone="no"?>
<!DOCTYPE svg PUBLIC "-//W3C//DTD SVG 20010904//EN"
 "http://www.w3.org/TR/2001/REC-SVG-20010904/DTD/svg10.dtd">
<svg version="1.0" xmlns="http://www.w3.org/2000/svg"
 width="64.000000pt" height="64.000000pt" viewBox="0 0 64.000000 64.000000"
 preserveAspectRatio="xMidYMid meet">

<g transform="translate(0.000000,64.000000) scale(0.100000,-0.100000)"
fill="#000000" stroke="none">
<path d="M60 520 c0 -53 2 -60 20 -60 17 0 20 7 20 40 l0 40 45 0 c38 0 45 3
45 20 0 18 -7 20 -65 20 l-65 0 0 -60z"/>
<path d="M450 560 c0 -17 7 -20 45 -20 l45 0 0 -40 c0 -33 3 -40 20 -40 18 0
20 7 20 60 l0 60 -65 0 c-58 0 -65 -2 -65 -20z"/>
<path d="M121 384 c-45 -57 -11 -154 53 -154 61 0 90 107 41 155 -32 33 -68
32 -94 -1z m83 -35 c12 -36 0 -76 -26 -85 -39 -12 -63 50 -37 97 15 28 51 21
63 -12z"/>
<path d="M290 388 c-29 -32 -28 -107 3 -136 27 -25 55 -28 82 -9 26 20 10 38
-26 30 -36 -7 -49 7 -49 54 0 38 24 57 53 41 29 -15 48 9 23 28 -28 20 -62 17
-86 -8z"/>
<path d="M420 320 c0 -73 3 -90 15 -90 10 0 15 11 15 35 0 24 5 35 15 35 8 0
21 -16 29 -35 8 -19 22 -35 30 -35 20 0 20 4 1 41 -14 27 -14 31 0 45 40 40 4
94 -63 94 l-42 0 0 -90z m85 35 c0 -14 -8 -21 -27 -23 -22 -3 -28 1 -28 16 0
25 10 33 35 30 12 -2 20 -10 20 -23z"/>
<path d="M60 120 l0 -60 65 0 c58 0 65 2 65 20 0 17 -7 20 -45 20 l-45 0 0 40
c0 33 -3 40 -20 40 -18 0 -20 -7 -20 -60z"/>
<path d="M540 140 l0 -40 -45 0 c-38 0 -45 -3 -45 -20 0 -18 7 -20 65 -20 l65
0 0 60 c0 53 -2 60 -20 60 -17 0 -20 -7 -20 -40z"/>
</g>
</svg>
